# xmcd
#
# Track frame offsets:
#	150
#	17943
#	36238
#	49716
#	66320
#
# Disc length: 1109 seconds
#
# Revision: 1
# Processed by: cddbd v1.5.2PL0 Copyright (c) Steve Scherf et al.
# Submitted via: audiograbber 1.83.01
#
DISCID=41045305
DTITLE=Various Artist - New Country Vol. 27
DYEAR=2005
DGENRE=Country
TTITLE0=Lance Dial - Another time another place
TTITLE1=Johnny Lee - Don't tell me to stop loving you
TTITLE2=Rebel Hearts - Good to go
TTITLE3=Billy Chernoff - Hard living cownoy
TTITLE4=Mollie Castle - Red Hot Daddy
EXTD=
EXTT0=
EXTT1=
EXTT2=
EXTT3=
EXTT4=
PLAYORDER=
